<svg width="481" height="12" viewBox="0 0 481 12" fill="none" xmlns="http://www.w3.org/2000/svg">
<path d="M480.541 6.53033C480.834 6.23744 480.834 5.76256 480.541 5.46967L475.768 0.696699C475.475 0.403806 475 0.403806 474.707 0.696699C474.414 0.989593 474.414 1.46447 474.707 1.75736L478.95 6L474.707 10.2426C474.414 10.5355 474.414 11.0104 474.707 11.3033C475 11.5962 475.475 11.5962 475.768 11.3033L480.541 6.53033ZM465 6.75L480.01 6.75V5.25L465 5.25V6.75Z" fill="white"/>
<path d="M0.46902 5.46967C0.176127 5.76256 0.176126 6.23744 0.46902 6.53033L5.24199 11.3033C5.53488 11.5962 6.00976 11.5962 6.30265 11.3033C6.59554 11.0104 6.59554 10.5355 6.30265 10.2426L2.06001 6L6.30265 1.75736C6.59554 1.46447 6.59554 0.989592 6.30265 0.696698C6.00976 0.403805 5.53488 0.403805 5.24199 0.696698L0.46902 5.46967ZM16.0098 5.25L0.99935 5.25L0.99935 6.75L16.0098 6.75L16.0098 5.25Z" fill="white"/>
</svg>
